<svg width="48" height="48" viewBox="0 0 48 48" fill="none" xmlns="http://www.w3.org/2000/svg">
<path d="M5.95052 21.8213H21.8203V5.9515C21.8203 5.42538 22.0293 4.92081 22.4013 4.54879C22.7734 4.17677 23.2779 3.96777 23.804 3.96777C24.3302 3.96777 24.8347 4.17677 25.2067 4.54879C25.5788 4.92081 25.7878 5.42538 25.7878 5.9515V21.8213H41.6576C42.1837 21.8213 42.6882 22.0303 43.0603 22.4023C43.4323 22.7743 43.6413 23.2789 43.6413 23.805C43.6413 24.3311 43.4323 24.8357 43.0603 25.2077C42.6882 25.5797 42.1837 25.7887 41.6576 25.7887H25.7878V41.6585C25.7878 42.1847 25.5788 42.6892 25.2067 43.0612C24.8347 43.4333 24.3302 43.6423 23.804 43.6423C23.2779 43.6423 22.7734 43.4333 22.4013 43.0612C22.0293 42.6892 21.8203 42.1847 21.8203 41.6585V25.7887H5.95052C5.4244 25.7887 4.91984 25.5797 4.54782 25.2077C4.1758 24.8357 3.9668 24.3311 3.9668 23.805C3.9668 23.2789 4.1758 22.7743 4.54782 22.4023C4.91984 22.0303 5.4244 21.8213 5.95052 21.8213Z" fill="#f2e9dc"/>
</svg>
